<?xml version="1.0" encoding="UTF-8" standalone="no"?>
<!-- Created with Inkscape (http://www.inkscape.org/) -->

<svg
   width="512"
   height="512"
   viewBox="0 0 512 512"
   version="1.1"
   id="svg1"
   xml:space="preserve"
   sodipodi:docname="zbox.svg"
   inkscape:version="1.4.3 (0d15f75042, 2025-12-25)"
   xmlns:inkscape="http://www.inkscape.org/namespaces/inkscape"
   xmlns:sodipodi="http://sodipodi.sourceforge.net/DTD/sodipodi-0.dtd"
   xmlns:xlink="http://www.w3.org/1999/xlink"
   xmlns="http://www.w3.org/2000/svg"
   xmlns:svg="http://www.w3.org/2000/svg"><sodipodi:namedview
     id="namedview1"
     pagecolor="#505050"
     bordercolor="#ffffff"
     borderopacity="1"
     inkscape:showpageshadow="0"
     inkscape:pageopacity="0"
     inkscape:pagecheckerboard="1"
     inkscape:deskcolor="#505050"
     inkscape:document-units="px"
     showguides="false"
     inkscape:zoom="1.233181"
     inkscape:cx="182.45496"
     inkscape:cy="304.09161"
     inkscape:window-width="1648"
     inkscape:window-height="1033"
     inkscape:window-x="0"
     inkscape:window-y="0"
     inkscape:window-maximized="0"
     inkscape:current-layer="layer1" /><defs
     id="defs1"><linearGradient
       id="linearGradient1"
       inkscape:collect="always"><stop
         style="stop-color:#641e26;stop-opacity:1;"
         offset="0"
         id="stop1" /><stop
         style="stop-color:#ff91c7;stop-opacity:0;"
         offset="1"
         id="stop2" /></linearGradient><linearGradient
       inkscape:collect="always"
       xlink:href="#linearGradient1"
       id="linearGradient2"
       x1="112.12246"
       y1="256.01324"
       x2="400.18457"
       y2="256.01324"
       gradientUnits="userSpaceOnUse"
       gradientTransform="matrix(1.3167783,0,0,1.4096857,-82.409804,-104.51286)" /></defs><g
     inkscape:label="Layer 1"
     inkscape:groupmode="layer"
     id="layer1"><rect
       style="fill:#161618;fill-opacity:1;stroke:#947cb9;stroke-width:14;stroke-dasharray:none;stroke-opacity:1;paint-order:stroke fill markers"
       id="rect1"
       width="498"
       height="498"
       x="7"
       y="7"
       ry="243.84625" /><path
       style="opacity:1;fill:url(#linearGradient2);stroke:#947cb9;stroke-width:5.44408;stroke-opacity:1"
       d="m 139.62888,388.55807 c -11.27746,-20.97872 -31.94684,-59.2647 -45.931951,-85.08 l -25.42744,-46.93691 28.466396,-52.87425 c 26.441925,-49.10911 28.604155,-52.69255 30.394825,-50.32593 1.87194,2.47411 26.80291,48.28814 58.3949,107.30834 l 15.49534,28.9484 9.01964,-15.6883 c 7.68353,-13.364 8.8063,-16.20623 7.57726,-19.18558 -1.31139,-3.17935 -10.442,-20.24573 -57.96008,-108.33586 l -15.55544,-28.83689 8.38766,-16.57015 c 6.07672,-12.00458 9.14899,-16.708866 11.15177,-17.073249 1.5204,-0.276619 25.06492,-0.486193 52.32117,-0.465684 47.61444,0.03577 105.20031,0.0084 121.54323,-0.05742 11.10557,-0.04498 9.90669,-1.609823 36.03075,47.032093 13.11384,24.41754 33.77157,62.70796 45.90605,85.0899 l 22.06266,40.69447 -28.78277,53.49672 c -15.83118,29.42278 -29.19327,53.24301 -29.69546,52.93261 -0.89671,-0.55425 -53.834,-98.01491 -67.4698,-124.21591 -3.82588,-7.35129 -7.26093,-13.55446 -7.63341,-13.78469 -0.37276,-0.23038 -4.63847,6.9262 -9.47979,15.90329 l -8.80239,16.3219 6.57339,12.14524 c 29.04552,53.66495 48.0227,88.93335 56.81541,105.58924 5.69273,10.7837 10.99843,20.00721 11.79043,20.49675 2.2481,1.3895 -14.87241,32.14858 -18.46806,33.17993 -5.90878,1.69495 -181.48221,1.42681 -184.18701,-0.28132 -1.11927,-0.70484 -11.26064,-18.44861 -22.53816,-39.42731 z m 70.67272,31.63925 c 86.83188,-0.21798 130.87712,0.31809 131.19717,1.59687 0.19506,0.77944 0.56094,1.0348 0.81291,0.56757 0.25202,-0.46734 -5.1377,-11.1573 -11.9773,-23.7553 C 323.4948,386.0085 306.98513,355.3811 293.6462,330.54563 280.30728,305.71014 266.10158,279.32742 262.07803,271.91735 l -7.3156,-13.47281 -28.01206,50.13914 -28.01213,50.13916 -31.07445,-57.74126 c -17.09096,-31.7577 -33.85086,-62.73229 -37.24419,-68.83247 l -6.16974,-11.09121 -8.84726,16.4051 -8.84722,16.40506 12.39243,22.98548 c 6.81582,12.64208 23.64308,43.8973 37.39388,69.45613 l 25.00156,46.47054 -7.48637,13.88168 -7.48638,13.8817 6.39085,-0.13392 c 3.515,-0.0738 20.40806,-0.16912 37.54017,-0.21216 z m 107.29286,-251.2218 c 4.02104,7.41476 20.44607,37.79361 36.50003,67.50855 16.05398,29.71496 29.52133,54.62779 29.92741,55.36186 0.40601,0.73422 4.7165,-6.04186 9.57863,-15.05751 l 8.84028,-16.39218 -7.9687,-15.06598 c -4.38281,-8.28624 -21.20389,-39.55295 -37.38017,-69.48161 l -29.41143,-54.41559 7.38817,-13.69958 c 4.06349,-7.53473 6.82405,-14.048262 6.13467,-14.474355 -0.954,-0.589675 -171.97208,-1.323342 -174.30371,-0.747775 -0.27206,0.06725 3.76822,7.98715 8.97808,17.60014 11.18948,20.64587 47.96411,88.7476 65.87349,121.9887 l 12.63105,23.44431 27.95062,-50.02518 27.95058,-50.02513 z"
       id="path46" /></g></svg>
