<?xml version="1.0" encoding="UTF-8" standalone="no"?>
<!-- Created with Inkscape (http://www.inkscape.org/) -->

<svg
   width="512"
   height="512"
   viewBox="0 0 512 512"
   version="1.1"
   id="svg1"
   xml:space="preserve"
   sodipodi:docname="zbox.svg"
   inkscape:version="1.4.3 (0d15f75042, 2025-12-25)"
   xmlns:inkscape="http://www.inkscape.org/namespaces/inkscape"
   xmlns:sodipodi="http://sodipodi.sourceforge.net/DTD/sodipodi-0.dtd"
   xmlns="http://www.w3.org/2000/svg"
   xmlns:svg="http://www.w3.org/2000/svg"><sodipodi:namedview
     id="namedview1"
     pagecolor="#505050"
     bordercolor="#ffffff"
     borderopacity="1"
     inkscape:showpageshadow="0"
     inkscape:pageopacity="0"
     inkscape:pagecheckerboard="1"
     inkscape:deskcolor="#505050"
     inkscape:document-units="px"
     showguides="false"
     inkscape:zoom="2"
     inkscape:cx="395.25"
     inkscape:cy="628.75"
     inkscape:window-width="2540"
     inkscape:window-height="1396"
     inkscape:window-x="0"
     inkscape:window-y="0"
     inkscape:window-maximized="0"
     inkscape:current-layer="layer1" /><defs
     id="defs1" /><g
     inkscape:label="Layer 1"
     inkscape:groupmode="layer"
     id="layer1"><rect
       style="fill:#b0b0b0;fill-opacity:1;stroke:#947cb9;stroke-width:14;stroke-dasharray:none;stroke-opacity:1;paint-order:stroke fill markers"
       id="rect1"
       width="498"
       height="498"
       x="7"
       y="7"
       ry="243.84625" /><path
       style="fill:#515151;fill-opacity:1;stroke:#947cb9;stroke-width:3.99584;stroke-opacity:1"
       d="m 168.62268,349.77365 c -8.56442,-14.88184 -24.26137,-42.04107 -34.88207,-60.35388 l -19.31034,-33.29601 21.61821,-37.50782 c 20.08077,-34.83692 21.72284,-37.37893 23.08273,-35.70011 1.4216,1.75508 20.35491,34.25455 44.3468,76.12217 l 11.76761,20.53536 6.84978,-11.12894 c 5.83509,-9.48013 6.68776,-11.49633 5.7544,-13.60982 -0.99591,-2.25537 -7.92997,-14.36188 -44.0166,-76.85107 l -11.81324,-20.45626 6.36982,-11.75449 c 4.61484,-8.51579 6.94801,-11.85291 8.46899,-12.11139 1.15463,-0.19623 19.03503,-0.3449 39.73424,-0.33035 36.15979,0.0254 79.89219,0.006 92.30348,-0.0407 8.4339,-0.0319 7.52342,-1.14197 27.36281,33.36354 9.95903,17.32126 25.64711,44.48362 34.86239,60.36089 l 16.75504,28.86776 -21.85848,37.9494 c -12.02267,20.87187 -22.17022,37.76941 -22.5516,37.54922 -0.68099,-0.39317 -40.88312,-69.52962 -51.23855,-88.11602 -2.90549,-5.21486 -5.51416,-9.61524 -5.79704,-9.77856 -0.28307,-0.16343 -3.52258,4.9133 -7.19923,11.28145 l -6.68479,11.57839 4.99202,8.61556 c 22.05803,38.06873 36.46986,63.08736 43.14729,74.90268 4.32323,7.64972 8.35253,14.19268 8.954,14.53994 1.70727,0.98569 -11.29454,22.8055 -14.02519,23.53712 -4.4873,1.20236 -137.8229,1.01214 -139.87701,-0.19956 -0.85001,-0.5 -8.55166,-13.08704 -17.11613,-27.96887 z m 53.67094,22.4442 c 65.94267,-0.15465 99.39192,0.22564 99.63498,1.13277 0.14812,0.55292 0.42599,0.73407 0.61734,0.40262 0.1914,-0.33152 -3.90172,-7.91474 -9.09591,-16.85148 -5.19418,-8.93672 -17.73211,-30.66312 -27.86209,-48.28086 -10.12997,-17.61774 -20.91817,-36.33306 -23.97378,-41.5896 l -5.55568,-9.55732 -21.27319,35.5676 -21.27322,35.56762 -23.59886,-40.96038 C 176.93384,265.1206 164.20588,243.14791 161.62888,238.82058 l -4.68548,-7.86785 -6.71887,11.63741 -6.71884,11.63737 9.41118,16.30541 c 5.17613,8.968 17.95524,31.13978 28.39801,49.27064 l 18.98691,32.96518 -5.68537,9.84736 -5.68538,9.84737 4.85341,-0.095 c 2.66939,-0.0523 15.49847,-0.11997 28.50911,-0.1505 z m 81.48134,-178.21121 c 3.0537,5.25986 15.52734,26.80994 27.71919,47.88907 12.19187,21.07913 22.41936,38.75174 22.72775,39.27247 0.30834,0.52084 3.58185,-4.28595 7.2743,-10.68146 l 6.71357,-11.62825 -6.05168,-10.68748 C 358.82966,242.29292 346.05525,220.113 333.7705,198.88228 l -22.33589,-38.60122 5.61079,-9.71818 c 3.08593,-5.34498 5.18238,-9.96553 4.65885,-10.26779 -0.72451,-0.4183 -130.60065,-0.93875 -132.37136,-0.53046 -0.2066,0.0477 2.8617,5.66592 6.81823,12.48515 8.4976,14.64573 36.42535,62.95558 50.02624,86.5361 l 9.5924,16.63087 21.22652,-35.48676 21.2265,-35.48672 z"
       id="path46" /></g></svg>
