<?xml version="1.0" encoding="UTF-8" standalone="no"?>
<!-- Created with Inkscape (http://www.inkscape.org/) -->

<svg
   width="512"
   height="512"
   viewBox="0 0 512 512"
   version="1.1"
   id="svg1"
   xml:space="preserve"
   sodipodi:docname="zgpu.svg"
   inkscape:version="1.4.3 (0d15f75042, 2025-12-25)"
   xmlns:inkscape="http://www.inkscape.org/namespaces/inkscape"
   xmlns:sodipodi="http://sodipodi.sourceforge.net/DTD/sodipodi-0.dtd"
   xmlns:xlink="http://www.w3.org/1999/xlink"
   xmlns="http://www.w3.org/2000/svg"
   xmlns:svg="http://www.w3.org/2000/svg"><sodipodi:namedview
     id="namedview1"
     pagecolor="#505050"
     bordercolor="#ffffff"
     borderopacity="1"
     inkscape:showpageshadow="0"
     inkscape:pageopacity="0"
     inkscape:pagecheckerboard="1"
     inkscape:deskcolor="#505050"
     inkscape:document-units="px"
     showguides="false"
     inkscape:zoom="0.92075503"
     inkscape:cx="240.56344"
     inkscape:cy="243.82164"
     inkscape:window-width="2534"
     inkscape:window-height="1390"
     inkscape:window-x="0"
     inkscape:window-y="0"
     inkscape:window-maximized="0"
     inkscape:current-layer="layer1" /><defs
     id="defs1"><linearGradient
       id="linearGradient42"
       inkscape:collect="always"><stop
         style="stop-color:#3d0915;stop-opacity:1;"
         offset="0"
         id="stop42" /><stop
         style="stop-color:#3d0915;stop-opacity:1;"
         offset="1"
         id="stop43" /></linearGradient><linearGradient
       inkscape:collect="always"
       xlink:href="#linearGradient42"
       id="linearGradient43"
       x1="0"
       y1="256"
       x2="512"
       y2="256"
       gradientUnits="userSpaceOnUse" /></defs><g
     inkscape:label="Layer 1"
     inkscape:groupmode="layer"
     id="layer1"><rect
       style="fill:url(#linearGradient43);fill-opacity:1;stroke:#b8cfd4;stroke-width:14;stroke-dasharray:none;stroke-opacity:1;paint-order:stroke fill markers"
       id="rect1"
       width="498"
       height="498"
       x="7"
       y="7"
       ry="243.84625" /><path
       style="fill:#b8cfd4;fill-opacity:1;stroke:none;stroke-width:0.616047;stroke-opacity:1"
       d="m 120.45845,268.32095 v -71.46142 h -7.39256 -7.39256 v -4.92837 -4.92838 h 12.32094 12.32093 l 0.0187,48.20566 c 0.014,35.96544 0.19426,47.89281 0.71004,46.97356 0.38022,-0.67765 2.58956,-3.48383 4.90964,-6.23597 l 4.21833,-5.00387 v -5.00689 -5.00688 h 4.26984 4.26984 l 4.16527,-4.77436 4.16529,-4.77436 -8.43512,-0.1714 -8.43513,-0.1714 v -4.91099 -4.91098 h 9.54874 9.54872 v -4.92838 -4.92837 h -9.54872 -9.54874 v -4.92838 -4.92837 h 9.53134 9.53134 l 0.17141,-8.47064 0.1714,-8.47065 5.08238,-0.17892 5.08239,-0.17893 v -8.59974 -8.59974 h 36.20238 36.20237 l 7.3733,-7.39256 7.37331,-7.39256 h 63.46869 63.46868 l 11.2366,11.24894 11.23661,11.24893 v 35.61585 35.61584 l -20.71298,23.67258 -20.71299,23.67256 h -83.92619 -83.9262 l -9.74157,-12.32093 -9.74158,-12.32093 h -18.68531 -18.68535 v 4.92837 4.92837 l 16.17123,0.0309 16.17123,0.0309 9.76013,12.29002 9.76011,12.29002 h 88.81423 88.81424 l 18.16651,-20.77186 18.1665,-20.77187 0.16528,15.05725 0.16528,15.05723 -14.02131,14.03125 -14.0213,14.03126 H 259.22801 140.17194 v -3.38826 -3.38826 h -4.92836 -4.92838 v 3.38826 3.38826 h -4.92837 -4.92838 z m 49.28374,44.35537 v -7.39256 h -4.92837 -4.92838 v 7.39256 7.39256 h 4.92838 4.92837 z m 80.3941,-14.40284 c 7.9323,-2.58783 13.49217,-6.03288 19.50646,-12.08673 4.60009,-4.63035 5.76346,-6.25666 8.42179,-11.77316 3.66566,-7.60686 5.03026,-13.27051 5.03026,-20.87776 0,-7.61801 -1.36525,-13.27237 -5.0514,-20.92102 -2.73075,-5.66624 -3.78726,-7.12566 -8.75438,-12.09276 -4.9671,-4.96711 -6.42652,-6.02364 -12.09276,-8.75438 -7.61116,-3.66808 -13.31753,-5.05532 -20.73461,-5.04069 -13.0211,0.0257 -23.81175,4.54009 -33.13347,13.8618 -9.27759,9.2776 -13.8511,20.15642 -13.8511,32.94705 0,12.79064 4.57351,23.66945 13.8511,32.94706 6.84279,6.84278 14.11573,10.89547 23.31536,12.99197 6.03318,1.3749 17.37347,0.79498 23.49275,-1.20138 z m -22.67342,-5.98596 c -1.28914,-0.30335 -3.71324,-1.14062 -5.38688,-1.8606 l -3.04299,-1.30906 3.26505,-2.33805 c 3.73127,-2.67191 6.11687,-5.82744 7.84606,-10.37828 1.83116,-4.81924 1.63323,-5.98778 -1.26464,-7.46617 -2.19312,-1.11885 -2.65536,-1.16448 -4.15831,-0.41051 -4.52804,2.27151 -14.30577,3.0572 -20.04899,1.61104 -2.5481,-0.64162 -2.95203,-0.98018 -3.53609,-2.96378 -0.36267,-1.23168 -0.82138,-3.83494 -1.01936,-5.78502 l -0.35996,-3.54561 2.76011,1.22092 c 4.92847,2.1801 8.86818,2.72374 13.6046,1.8773 3.90167,-0.69727 4.21521,-0.86583 3.86743,-2.07917 -0.20816,-0.72622 -0.54988,-2.7065 -0.75936,-4.40063 -0.31468,-2.54472 -0.84528,-3.55653 -3.05197,-5.81986 -2.86244,-2.93593 -6.4677,-9.26779 -7.55386,-13.26672 -0.65568,-2.41405 -0.62214,-2.49819 2.09579,-5.25762 1.51918,-1.54237 3.55588,-3.27317 4.52601,-3.84625 l 1.76387,-1.04194 0.33054,3.64526 c 0.33763,3.72343 2.41655,9.04734 4.5387,11.62314 l 1.18407,1.43717 3.28893,-2.21329 c 1.80891,-1.21731 3.89036,-2.36424 4.62543,-2.54874 0.93289,-0.23413 1.67613,-1.29169 2.46114,-3.50193 2.1703,-6.11063 7.57461,-13.39981 9.93481,-13.39981 1.4966,0 9.27568,2.61506 10.03356,3.37294 0.22866,0.22866 -0.13331,0.72302 -0.80436,1.09856 -2.58532,1.44681 -7.27475,6.41423 -8.68785,9.20286 -0.81325,1.60486 -1.47864,3.03943 -1.47864,3.18791 0,0.14848 1.17819,0.96298 2.6182,1.80999 1.44001,0.84702 3.25013,2.21674 4.02248,3.04382 1.36282,1.45939 1.49862,1.4793 4.60059,0.67467 3.80712,-0.98756 10.06061,-0.98575 14.32331,0.004 2.81807,0.65442 3.14603,0.91995 3.87161,3.13471 0.43601,1.33085 0.95873,4.00783 1.1616,5.94885 l 0.36887,3.52913 -3.23464,-1.60081 c -2.45522,-1.21508 -4.44189,-1.66055 -8.24478,-1.84875 -7.01711,-0.34727 -7.85228,0.0798 -8.72737,4.46226 l -0.71173,3.56435 3.7546,3.81177 c 3.68022,3.73624 6.58413,8.61585 8.0978,13.60717 0.663,2.18622 0.61782,2.65056 -0.37756,3.87979 -1.2884,1.59112 -6.82198,6.26572 -7.41706,6.26572 -0.21656,0 -0.57581,-1.60913 -0.79832,-3.57585 -0.53415,-4.72133 -3.26898,-10.26943 -6.68982,-13.57155 l -2.76631,-2.67031 -2.54178,1.29672 c -2.06383,1.05289 -2.54178,1.62088 -2.54178,3.02053 0,2.43904 -1.68979,7.82905 -3.70068,11.80418 -1.65351,3.2687 -6.44598,9.30578 -7.2865,9.17882 -0.22534,-0.0341 -1.46443,-0.31007 -2.75357,-0.61342 z m 65.48867,0.6753 v -7.39256 h -4.92837 -4.92837 v 7.39256 7.39256 h 4.92837 4.92837 z m 60.68061,5.31066 c 7.93229,-2.58783 13.49216,-6.03288 19.50644,-12.08673 4.6001,-4.63035 5.76347,-6.25666 8.42179,-11.77316 3.68338,-7.6436 5.03177,-13.27742 5.02596,-20.99937 -0.006,-7.62154 -1.73084,-14.58802 -5.36487,-21.66493 -2.31673,-4.51161 -3.9998,-6.74281 -8.4876,-11.25181 -4.93148,-4.95477 -6.36489,-5.99395 -12.04176,-8.72981 -7.61115,-3.66808 -13.31752,-5.05532 -20.7346,-5.04069 -13.0211,0.0257 -23.81176,4.54009 -33.13347,13.8618 -9.2776,9.2776 -13.85111,20.15642 -13.85111,32.94705 0,12.79064 4.57351,23.66945 13.85111,32.94706 6.84279,6.84278 14.11573,10.89547 23.31536,12.99197 6.03318,1.3749 17.37347,0.79498 23.49275,-1.20138 z m -22.48571,-6.00796 c -1.18589,-0.3224 -3.60122,-1.15705 -5.3674,-1.85479 l -3.21123,-1.26861 2.90321,-1.99143 c 4.939,-3.38786 8.13256,-8.43134 9.60836,-15.17418 0.30158,-1.37788 0.0166,-1.74038 -2.21958,-2.82343 l -2.56557,-1.24257 -4.17878,1.45323 c -4.76259,1.65627 -13.0055,2.01654 -17.90585,0.78261 l -2.86765,-0.72208 -0.9588,-4.21554 c -1.03069,-4.53156 -1.24228,-7.60917 -0.49678,-7.22541 5.91937,3.04701 11.35634,4.03646 16.37077,2.97922 2.76193,-0.58233 3.50623,-0.96899 3.23347,-1.67981 -0.19488,-0.50784 -0.53506,-2.49378 -0.75596,-4.41321 -0.35062,-3.04653 -0.77703,-3.90274 -3.35678,-6.74015 -3.36388,-3.69986 -6.65612,-9.92995 -7.13531,-13.50252 -0.30784,-2.29516 -0.1562,-2.57207 2.92617,-5.34339 1.78796,-1.60753 3.75801,-3.19421 4.37788,-3.52595 0.98788,-0.5287 1.12704,-0.34809 1.12704,1.46285 0,3.10605 1.72734,8.39663 3.81487,11.68436 1.0219,1.60942 1.93984,2.92622 2.03989,2.92622 0.10004,0 1.62777,-0.97299 3.39495,-2.16222 1.76717,-1.18923 3.84537,-2.32093 4.6182,-2.5149 1.02887,-0.25823 1.74628,-1.28765 2.67907,-3.84423 1.51087,-4.14095 4.0724,-8.25269 6.91266,-11.09611 1.84585,-1.8479 2.30764,-2.02019 4.48254,-1.67241 2.92905,0.46837 8.40458,2.74885 8.40458,3.50038 0,0.2971 -0.24724,0.54018 -0.54942,0.54018 -0.30218,0 -1.95035,1.25957 -3.66261,2.79903 -3.15137,2.83336 -5.04994,5.41312 -6.1894,8.41013 -0.58176,1.53015 -0.44293,1.75443 1.96146,3.16876 1.42314,0.83713 3.21945,2.19876 3.99181,3.02584 1.37291,1.47018 1.47612,1.48427 4.62035,0.63027 3.55164,-0.96465 13.08031,-0.74309 15.9747,0.37144 1.31494,0.50634 1.86008,1.33552 2.56519,3.90173 0.49247,1.79231 1.02756,4.40773 1.1891,5.81204 l 0.29371,2.55329 -3.44126,-1.57545 c -3.81626,-1.74714 -10.68025,-2.50142 -14.24635,-1.56552 -1.97972,0.51956 -2.15891,0.78417 -2.83965,4.19333 l -0.72659,3.63878 3.14768,2.88987 c 3.68757,3.38555 6.70706,8.15585 8.51618,13.45422 l 1.29298,3.7867 -2.00923,2.07299 c -1.10505,1.14014 -3.22764,2.94799 -4.71684,4.01745 l -2.70764,1.94447 v -2.69867 c 0,-1.48427 -0.41128,-4.08361 -0.91396,-5.77632 -1.03464,-3.48401 -5.01405,-9.3853 -7.3695,-10.92866 -1.48427,-0.97252 -1.70561,-0.95997 -4.03601,0.22892 -2.14117,1.09233 -2.46564,1.53143 -2.46564,3.33662 0,3.06382 -2.1457,9.47131 -4.34978,12.98935 -1.89419,3.02338 -6.04663,7.7544 -6.71007,7.64503 -0.18536,-0.0306 -1.30729,-0.31935 -2.49318,-0.64175 z M 194.38406,209.18046 v -7.39256 h -4.92837 -4.92837 v 7.39256 7.39257 h 4.92837 4.92837 z m 197.13496,0 v -7.39256 h -4.92837 -4.92837 v 7.39256 7.39257 h 4.92837 4.92837 z m -98.56748,-9.85674 v -7.39256 h -4.92837 -4.92837 v 7.39256 7.39256 h 4.92837 4.92837 z"
       id="path1" /><circle
       style="fill:#3d0915;fill-opacity:1;stroke:none;stroke-width:14;stroke-dasharray:none;stroke-opacity:1;paint-order:stroke fill markers"
       id="path32"
       cx="234.8616"
       cy="253.05318"
       r="42.628059" /><text
       xml:space="preserve"
       style="font-style:normal;font-variant:normal;font-weight:normal;font-stretch:normal;font-size:94.6141px;font-family:'Fira Code';-inkscape-font-specification:'Fira Code';writing-mode:lr-tb;direction:ltr;fill:#b8cfd4;fill-opacity:1;stroke:none;stroke-width:24.8362;stroke-dasharray:none;stroke-opacity:1;paint-order:stroke fill markers"
       x="193.85069"
       y="302.41754"
       id="text33"
       transform="scale(1.0567456,0.94630156)"><tspan
         sodipodi:role="line"
         id="tspan33"
         x="193.85069"
         y="302.41754"
         style="font-style:normal;font-variant:normal;font-weight:bold;font-stretch:normal;font-family:'Fira Code';-inkscape-font-specification:'Fira Code Bold';stroke-width:24.8362">Z</tspan></text></g></svg>
