<?xml version="1.0" encoding="UTF-8" standalone="no"?>
<!-- Created with Inkscape (http://www.inkscape.org/) -->

<svg
   width="512"
   height="512"
   viewBox="0 0 512 512"
   version="1.1"
   id="svg1"
   xml:space="preserve"
   sodipodi:docname="zgpu.svg"
   inkscape:version="1.4.3 (0d15f75042, 2025-12-25)"
   xmlns:inkscape="http://www.inkscape.org/namespaces/inkscape"
   xmlns:sodipodi="http://sodipodi.sourceforge.net/DTD/sodipodi-0.dtd"
   xmlns:xlink="http://www.w3.org/1999/xlink"
   xmlns="http://www.w3.org/2000/svg"
   xmlns:svg="http://www.w3.org/2000/svg"><sodipodi:namedview
     id="namedview1"
     pagecolor="#505050"
     bordercolor="#ffffff"
     borderopacity="1"
     inkscape:showpageshadow="0"
     inkscape:pageopacity="0"
     inkscape:pagecheckerboard="1"
     inkscape:deskcolor="#505050"
     inkscape:document-units="px"
     showguides="false"
     inkscape:zoom="0.94898304"
     inkscape:cx="251.32167"
     inkscape:cy="195.99929"
     inkscape:window-width="1648"
     inkscape:window-height="1033"
     inkscape:window-x="0"
     inkscape:window-y="0"
     inkscape:window-maximized="0"
     inkscape:current-layer="layer1" /><defs
     id="defs1"><linearGradient
       id="linearGradient42"
       inkscape:collect="always"><stop
         style="stop-color:#3d0915;stop-opacity:1;"
         offset="0"
         id="stop42" /><stop
         style="stop-color:#3d0915;stop-opacity:1;"
         offset="1"
         id="stop43" /></linearGradient><linearGradient
       inkscape:collect="always"
       xlink:href="#linearGradient42"
       id="linearGradient43"
       x1="0"
       y1="256"
       x2="512"
       y2="256"
       gradientUnits="userSpaceOnUse" /></defs><g
     inkscape:label="Layer 1"
     inkscape:groupmode="layer"
     id="layer1"><rect
       style="fill:url(#linearGradient43);fill-opacity:1;stroke:#b8cfd4;stroke-width:14;stroke-dasharray:none;stroke-opacity:1;paint-order:stroke fill markers"
       id="rect1"
       width="498"
       height="498"
       x="7"
       y="7"
       ry="243.84625" /><path
       id="path1"
       style="fill:#b8cfd4;fill-opacity:1;stroke:none;stroke-width:0.825113;stroke-opacity:1"
       d="m 76.545699,272.36553 v -97.97587 h -9.672656 -9.672655 v -6.75695 -6.75697 h 16.121101 16.121088 l 0.02447,66.09149 c 0.01832,49.30976 0.254176,65.66257 0.929039,64.40225 0.497492,-0.92908 3.38826,-4.77644 6.423925,-8.54971 l 5.519399,-6.86047 v -6.8646 -6.8646 h 5.58679 5.58679 l 5.44996,-6.5458 5.45,-6.5458 -11.03677,-0.23499 -11.03678,-0.23499 v -6.73313 -6.73311 h 12.49385 12.49386 v -6.75697 -6.75695 h -12.49386 -12.49386 v -6.75696 -6.75696 h 12.47111 12.47109 l 0.22428,-11.61351 0.22427,-11.61353 6.64994,-0.24531 6.64996,-0.24531 v -11.79053 -11.79051 h 47.36832 47.3683 l 9.64746,-10.13544 9.64747,-10.13543 h 83.04441 83.0444 l 14.70231,15.42266 14.70233,15.42264 v 48.83046 48.83045 l -27.10151,32.45586 -27.10151,32.45583 H 286.54037 176.72873 l -12.74618,-16.89238 -12.74619,-16.8924 h -24.44843 -24.4485 v 6.75696 6.75695 l 21.15895,0.0423 21.15893,0.0423 12.77046,16.85 12.77044,16.85001 H 286.4055 402.61282 l 23.76962,-28.47888 23.76962,-28.4789 0.21625,20.64398 0.21626,20.64394 -18.34592,19.23728 -18.3459,19.23731 H 258.11611 102.33944 v -4.64542 -4.6454 h -6.448417 -6.448446 v 4.6454 4.64542 h -6.448433 -6.448445 z m 64.484381,60.81263 v -10.13543 h -6.44843 -6.44845 v 10.13543 10.13543 h 6.44845 6.44843 z m 105.19014,-19.74675 c 10.37887,-3.548 17.65357,-8.27127 25.52286,-16.5713 6.01891,-6.34835 7.54109,-8.57807 11.01933,-16.14137 4.79626,-10.42924 6.58175,-18.19429 6.58175,-28.62407 0,-10.44454 -1.78634,-18.19685 -6.60941,-28.68338 -3.57299,-7.7686 -4.95537,-9.76951 -11.4545,-16.57956 -6.49911,-6.81007 -8.40866,-8.2586 -15.82255,-12.00254 -9.95867,-5.02906 -17.42506,-6.931 -27.12981,-6.91095 -17.0372,0.0353 -31.15603,6.22461 -43.35285,19.00498 -12.1391,12.71988 -18.12321,27.63509 -18.12321,45.17145 0,17.53637 5.98411,32.45157 18.12321,45.17147 8.95332,9.38166 18.46945,14.93803 30.50653,17.8124 7.894,1.88503 22.732,1.08994 30.73865,-1.64713 z m -29.66661,-8.20694 c -1.68675,-0.41591 -4.85852,-1.56383 -7.04836,-2.55094 l -3.98154,-1.79477 4.2721,-3.20554 c 4.8821,-3.66327 8.0035,-7.9896 10.26602,-14.22895 2.39595,-6.60733 2.13697,-8.20944 -1.6547,-10.23635 -2.86954,-1.53399 -3.47435,-1.59654 -5.44085,-0.56282 -5.92464,3.1143 -18.71812,4.19151 -26.23273,2.20878 -3.33402,-0.87968 -3.86252,-1.34386 -4.62673,-4.06344 -0.47452,-1.68868 -1.07472,-5.25782 -1.33376,-7.93145 l -0.47098,-4.86114 3.61141,1.67393 c 6.44857,2.98897 11.60341,3.73432 17.80068,2.57383 5.10507,-0.95598 5.51532,-1.18708 5.06027,-2.85061 -0.27236,-0.99567 -0.71948,-3.7107 -0.99357,-6.0334 -0.41173,-3.48889 -1.10599,-4.87612 -3.99329,-7.97921 -3.74531,-4.02525 -8.46255,-12.70644 -9.88371,-18.1891 -0.85792,-3.30973 -0.81402,-3.4251 2.7422,-7.20837 1.98774,-2.11463 4.65262,-4.48761 5.92197,-5.27333 l 2.30791,-1.42852 0.43247,4.99776 c 0.44178,5.10494 3.1619,12.40419 5.93858,15.93569 l 1.54928,1.97041 4.30334,-3.03449 c 2.36683,-1.66897 5.09026,-3.24145 6.05206,-3.49441 1.22061,-0.32099 2.19309,-1.77094 3.22023,-4.80126 2.83968,-8.37786 9.91086,-18.37156 12.99901,-18.37156 1.95819,0 12.13659,3.58534 13.12822,4.62441 0.29919,0.3135 -0.17443,0.99128 -1.05245,1.50616 -3.38271,1.98363 -9.51851,8.79412 -11.36745,12.61741 -1.06408,2.20032 -1.9347,4.16716 -1.9347,4.37073 0,0.20357 1.54158,1.32028 3.42573,2.48155 1.88416,1.16129 4.25258,3.03922 5.26314,4.17318 1.78316,2.00086 1.96085,2.02816 6.01956,0.92499 4.98136,-1.35397 13.16361,-1.35149 18.74106,0.006 3.68726,0.89724 4.11636,1.26128 5.06574,4.2978 0.57048,1.82463 1.25443,5.49485 1.51987,8.15606 l 0.48264,4.83854 -4.2323,-2.19476 c -3.21248,-1.66591 -5.8119,-2.27667 -10.78772,-2.53469 -9.18141,-0.47612 -10.27417,0.10945 -11.41917,6.11789 l -0.93125,4.88685 4.91263,5.22606 c 4.81532,5.1225 8.61489,11.8126 10.59542,18.65585 0.86749,2.99738 0.80838,3.634 -0.49401,5.31932 -1.68578,2.18147 -8.9261,8.5905 -9.70471,8.5905 -0.28335,0 -0.75341,-2.20617 -1.04454,-4.90261 -0.69891,-6.47309 -4.27724,-14.0797 -8.75318,-18.60702 l -3.61953,-3.66108 -3.32574,1.77785 c -2.70037,1.44354 -3.32574,2.22227 -3.32574,4.14123 0,3.34401 -2.21097,10.73388 -4.84209,16.18392 -2.1635,4.48148 -8.43412,12.75851 -9.53388,12.58445 -0.29484,-0.0468 -1.91611,-0.42512 -3.60286,-0.84102 z m 85.68742,0.92585 v -10.13543 h -6.44844 -6.44843 v 10.13543 10.13543 h 6.44843 6.44844 z m 79.3964,7.28109 c 10.37885,-3.548 17.65355,-8.27127 25.52283,-16.5713 6.01892,-6.34835 7.54111,-8.57807 11.01933,-16.14137 4.81945,-10.47962 6.58372,-18.20376 6.57612,-28.7908 -0.008,-10.44938 -2.26469,-20.00064 -7.01956,-29.70331 -3.03128,-6.18556 -5.23346,-9.2446 -11.10544,-15.42658 -6.4525,-6.79316 -8.32802,-8.2179 -15.75582,-11.96886 -9.95866,-5.02906 -17.42505,-6.931 -27.12979,-6.91095 -17.03721,0.0353 -31.15605,6.22461 -43.35286,19.00498 -12.1391,12.71988 -18.12322,27.63509 -18.12322,45.17145 0,17.53637 5.98412,32.45157 18.12322,45.17147 8.95332,9.38166 18.46946,14.93803 30.50654,17.8124 7.894,1.88503 22.73199,1.08994 30.73865,-1.64713 z m -29.42101,-8.23711 c -1.55166,-0.44202 -4.71195,-1.58635 -7.02287,-2.54297 l -4.20167,-1.7393 3.79865,-2.73031 c 6.46234,-4.64487 10.64089,-11.55965 12.57187,-20.80429 0.3946,-1.88912 0.0217,-2.38612 -2.90416,-3.87102 l -3.35688,-1.7036 -5.46765,1.99242 c -6.23151,2.27081 -17.01679,2.76475 -23.42856,1.07299 l -3.75213,-0.99 -1.25452,-5.77963 c -1.34858,-6.21292 -1.62544,-10.43242 -0.65,-9.90628 7.74509,4.17756 14.85899,5.53412 21.42002,4.08462 3.61379,-0.7984 4.58766,-1.32852 4.23077,-2.30308 -0.25498,-0.69626 -0.70008,-3.41905 -0.98912,-6.05065 -0.45875,-4.1769 -1.01669,-5.35078 -4.39211,-9.24096 -4.40141,-5.07262 -8.70908,-13.61428 -9.33606,-18.51238 -0.40279,-3.14675 -0.20438,-3.52639 3.82869,-7.32597 2.33942,-2.20397 4.9171,-4.37935 5.72815,-4.83418 1.29258,-0.72486 1.47466,-0.47725 1.47466,2.00561 0,4.2585 2.2601,11.51205 4.9915,16.01963 1.33708,2.20657 2.53814,4.01194 2.66905,4.01194 0.1309,0 2.12983,-1.33399 4.44206,-2.96447 2.31222,-1.63047 5.03139,-3.18207 6.04259,-3.448 1.3462,-0.35405 2.28489,-1.76542 3.50538,-5.27057 1.97687,-5.67737 5.32846,-11.3147 9.04474,-15.21312 2.41516,-2.53353 3.01939,-2.76974 5.8651,-2.29292 3.83246,0.64214 10.99681,3.76876 10.99681,4.79913 0,0.40733 -0.3235,0.7406 -0.71888,0.7406 -0.39539,0 -2.5519,1.72691 -4.79227,3.83756 -4.12335,3.88463 -6.60751,7.42156 -8.0984,11.53055 -0.76119,2.09789 -0.57955,2.40538 2.56643,4.34448 1.86209,1.14773 4.21243,3.01456 5.22301,4.14852 1.79636,2.01567 1.9314,2.03498 6.04541,0.86411 4.64707,-1.32256 17.11468,-1.01879 20.90179,0.50926 1.72051,0.69422 2.43379,1.83105 3.35637,5.3494 0.64437,2.45732 1.3445,6.04314 1.55586,7.96849 l 0.3843,3.50065 -4.50265,-2.15999 c -4.99332,-2.39539 -13.97437,-3.42953 -18.64036,-2.14639 -2.59033,0.71234 -2.82479,1.07513 -3.71549,5.74919 l -0.9507,4.98889 4.11853,3.9621 c 4.82493,4.6417 8.77572,11.18193 11.14283,18.44616 l 1.69178,5.19169 -2.62895,2.84213 c -1.44588,1.56317 -4.22314,4.04179 -6.17166,5.50806 l -3.54276,2.66593 v -3.69997 c 0,-2.03498 -0.53813,-5.59875 -1.19585,-7.91951 -1.35375,-4.77669 -6.56054,-12.86755 -9.64249,-14.98355 -1.94205,-1.33336 -2.23166,-1.31615 -5.28083,0.31386 -2.80157,1.49762 -3.22612,2.09964 -3.22612,4.57461 0,4.2006 -2.8075,12.98547 -5.69139,17.80882 -2.47842,4.14515 -7.91159,10.63152 -8.77967,10.48158 -0.24252,-0.042 -1.71049,-0.43784 -3.26215,-0.87987 z M 173.27227,191.28205 v -10.13543 h -6.44843 -6.44844 v 10.13543 10.13545 h 6.44844 6.44843 z m 257.93751,0 v -10.13543 h -6.44843 -6.44843 v 10.13543 10.13545 h 6.44843 6.44843 z M 302.24103,177.76814 v -10.13543 h -6.44844 -6.44843 v 10.13543 10.13544 h 6.44843 6.44844 z" /></g></svg>
