<?xml version="1.0" encoding="UTF-8" standalone="no"?>
<!-- Created with Inkscape (http://www.inkscape.org/) -->

<svg
   width="512"
   height="512"
   viewBox="0 0 512 512"
   version="1.1"
   id="svg1"
   xml:space="preserve"
   sodipodi:docname="zrun.svg"
   inkscape:version="1.4.3 (0d15f75042, 2025-12-25)"
   xmlns:inkscape="http://www.inkscape.org/namespaces/inkscape"
   xmlns:sodipodi="http://sodipodi.sourceforge.net/DTD/sodipodi-0.dtd"
   xmlns="http://www.w3.org/2000/svg"
   xmlns:svg="http://www.w3.org/2000/svg"><sodipodi:namedview
     id="namedview1"
     pagecolor="#505050"
     bordercolor="#ffffff"
     borderopacity="1"
     inkscape:showpageshadow="0"
     inkscape:pageopacity="0"
     inkscape:pagecheckerboard="1"
     inkscape:deskcolor="#505050"
     inkscape:document-units="px"
     showguides="false"
     inkscape:zoom="0.92075503"
     inkscape:cx="222.64337"
     inkscape:cy="393.69864"
     inkscape:window-width="1259"
     inkscape:window-height="1390"
     inkscape:window-x="0"
     inkscape:window-y="0"
     inkscape:window-maximized="0"
     inkscape:current-layer="layer1" /><defs
     id="defs1" /><g
     inkscape:label="Layer 1"
     inkscape:groupmode="layer"
     id="layer1"><rect
       style="fill:#283d54;fill-opacity:1;stroke:#b8cfd4;stroke-width:14;stroke-dasharray:none;stroke-opacity:1;paint-order:stroke fill markers"
       id="rect1"
       width="498"
       height="498"
       x="7"
       y="7"
       ry="243.84625" /><g
       id="g1"
       transform="translate(0.849793,2.5493774)"><path
         style="fill:#b8cfd4;fill-opacity:1;stroke-width:0.7498"
         d="m 117.44783,388.11832 c -13.77224,-3.34065 -25.764061,-15.60217 -29.100071,-29.75455 -1.70295,-7.22446 -1.70295,-202.56493 0,-209.78939 3.42685,-14.53774 16.004101,-27.03259 30.188291,-29.99052 5.6173,-1.17142 267.61102,-1.17142 273.22831,0 14.1842,2.95793 26.76144,15.45278 30.18828,29.99052 1.70297,7.22446 1.70297,202.56493 0,209.78939 -3.42684,14.53774 -16.00408,27.0326 -30.18828,29.99052 -6.0622,1.2642 -269.0646,1.03795 -274.31653,-0.23597 z M 392.8988,371.29449 c 4.63656,-2.09656 10.15681,-7.72259 12.4519,-12.69053 l 1.63402,-3.53697 V 253.46907 151.87117 l -1.63402,-3.53698 c -2.29509,-4.96793 -7.81534,-10.59397 -12.4519,-12.69053 l -3.90929,-1.76769 H 255.1502 121.31089 l -3.90928,1.76769 c -4.63656,2.09656 -10.1568,7.7226 -12.4519,12.69053 l -1.63402,3.53698 v 101.5979 101.59792 l 1.62024,3.50581 c 1.9057,4.1235 7.09417,9.98256 10.33767,11.67378 6.11626,3.18911 2.11703,3.10523 141.0013,2.95713 l 132.71461,-0.14152 z M 155.87269,324.30461 c -3.1691,-1.65268 -4.14421,-3.30808 -4.17104,-7.08099 l -0.0239,-3.35258 30.16699,-30.20098 30.16698,-30.20099 -30.16698,-30.20098 -30.16699,-30.20098 v -3.43777 c 0,-2.70656 0.41658,-3.85435 1.95854,-5.39631 2.52497,-2.52497 6.18745,-3.23163 9.00992,-1.73844 3.64058,1.926 67.60165,66.58393 68.16982,68.91253 0.2767,1.13408 0.2767,2.98983 0,4.1239 -0.55539,2.27619 -64.48525,66.96212 -68.0415,68.84618 -2.57531,1.36439 -4.17873,1.34752 -6.90188,-0.0726 z m 95.04346,-0.29911 c -3.23055,-1.96986 -4.46422,-5.77346 -3.00518,-9.26542 2.22946,-5.33585 -1.06275,-5.036 55.29215,-5.036 49.71427,0 50.7565,0.0299 52.63979,1.51133 2.86521,2.25376 3.87012,5.96942 2.5008,9.24667 -2.16269,5.17604 -0.0758,4.98812 -55.35652,4.985 -47.68854,-0.003 -49.8075,-0.0613 -52.07104,-1.44158 z"
         id="path1"
         sodipodi:insensitive="true" /><text
         xml:space="preserve"
         style="font-style:normal;font-variant:normal;font-weight:bold;font-stretch:normal;font-size:80.2013px;font-family:'Adwaita Sans';-inkscape-font-specification:'Adwaita Sans Bold';writing-mode:lr-tb;direction:ltr;fill:#b8cfd4;fill-opacity:1;stroke:none;stroke-width:1.58548;stroke-dasharray:none;stroke-opacity:1;paint-order:stroke fill markers"
         x="244.36395"
         y="280.87286"
         id="text1"
         transform="scale(1.0155816,0.98465746)"
         sodipodi:insensitive="true"><tspan
           sodipodi:role="line"
           id="tspan1"
           x="244.36395"
           y="280.87286"
           style="font-style:normal;font-variant:normal;font-weight:bold;font-stretch:normal;font-family:'Adwaita Sans';-inkscape-font-specification:'Adwaita Sans Bold';fill:#b8cfd4;fill-opacity:1;stroke:none;stroke-width:1.58548;stroke-dasharray:none;stroke-opacity:1">run</tspan></text></g></g></svg>
