<?xml version="1.0" encoding="UTF-8" standalone="no"?>
<!-- Created with Inkscape (http://www.inkscape.org/) -->

<svg
   width="512"
   height="512"
   viewBox="0 0 512 512"
   version="1.1"
   id="svg1"
   xml:space="preserve"
   sodipodi:docname="zupdate.svg"
   inkscape:version="1.4.3 (0d15f75042, 2025-12-25)"
   xmlns:inkscape="http://www.inkscape.org/namespaces/inkscape"
   xmlns:sodipodi="http://sodipodi.sourceforge.net/DTD/sodipodi-0.dtd"
   xmlns="http://www.w3.org/2000/svg"
   xmlns:svg="http://www.w3.org/2000/svg"><sodipodi:namedview
     id="namedview1"
     pagecolor="#505050"
     bordercolor="#ffffff"
     borderopacity="1"
     inkscape:showpageshadow="0"
     inkscape:pageopacity="0"
     inkscape:pagecheckerboard="1"
     inkscape:deskcolor="#505050"
     inkscape:document-units="px"
     showguides="false"
     inkscape:zoom="1.8415101"
     inkscape:cx="170.24072"
     inkscape:cy="241.92102"
     inkscape:window-width="2540"
     inkscape:window-height="1396"
     inkscape:window-x="0"
     inkscape:window-y="0"
     inkscape:window-maximized="0"
     inkscape:current-layer="layer1" /><defs
     id="defs1" /><g
     inkscape:label="Layer 1"
     inkscape:groupmode="layer"
     id="layer1"><rect
       style="fill:#4fb84f;fill-opacity:1;stroke:#4fb84f;stroke-width:14;stroke-dasharray:none;stroke-opacity:1;paint-order:stroke fill markers"
       id="rect1"
       width="498"
       height="498"
       x="7"
       y="7"
       ry="243.84625" /><path
       style="fill:#5d8b67;stroke-width:0.967044;fill-opacity:1"
       d="M 243.74005,508.69814 C 25.78604,498.73652 -76.881806,231.76264 77.66952,76.854092 233.06894,-78.904517 497.60585,25.996442 508.14877,247.55877 514.79609,387.25441 390.4022,515.2371 253.88575,509.15732 c -2.12577,-0.0946 -6.69134,-0.30131 -10.1457,-0.45918 z m 66.15289,-96.16121 c 18.05514,-5.79304 26.30031,-21.19873 19.00818,-35.51586 -13.75153,-26.99926 -65.30351,-10.42441 -59.00926,18.97251 3.8071,17.78103 17.93413,23.62358 40.00108,16.54335 z m -79.19031,-0.30228 c 21.12159,-9.85192 18.46945,-38.20343 -4.35518,-46.55738 -3.98581,-1.45883 -10.50803,-4.1757 -14.49384,-6.03747 -23.82127,-11.12692 -46.02723,5.67754 -38.14015,28.86273 5.29283,15.559 41.86247,30.78777 56.98917,23.73212 z m 141.54945,-42.31802 c 17.26156,-3.94521 30.66958,-29.66179 23.17371,-44.44714 -10.91857,-21.53643 -37.86406,-16.49542 -51.13845,9.56707 -9.4795,18.61169 7.34239,39.59339 27.96474,34.88007 z M 151.28182,354.12354 c 21.09683,-6.35956 20.57543,-40.78768 -0.97955,-64.68177 -16.00353,-17.74021 -46.92867,-0.94074 -41.87437,22.74743 5.99254,28.08556 25.49316,47.16771 42.85392,41.93434 z m 254.37226,-61.05981 c 16.802,-5.06008 22.83557,-30.29292 10.68935,-44.70383 -11.91082,-14.13167 -36.40652,-8.82057 -41.77848,9.05831 -6.91418,23.01164 9.71814,42.08156 31.08913,35.64552 z M 133.89684,257.65122 c 8.33855,-2.31925 14.35411,-10.40117 17.09102,-22.96182 2.31986,-10.64652 6.38106,-21.6971 11.2764,-30.68321 l 3.69072,-6.77485 0.57716,7.75129 c 1.93471,25.98314 27.35732,37.04647 43.6419,18.99193 6.21165,-6.88679 6.51084,-9.27209 6.51084,-51.90693 0,-62.49335 1.83783,-60.69515 -61.60564,-60.27759 l -41.30059,0.27181 -4.67981,2.39425 c -24.304255,12.43439 -13.907316,46.45313 14.20417,46.47602 7.65116,0.006 7.61582,-0.17556 1.67079,8.5932 -33.488127,49.39405 -28.512131,98.53805 8.92304,88.1259 z m 255.965,-40.6234 c 12.31126,-3.42474 20.35703,-19.39933 15.79585,-31.36214 -7.51385,-19.70691 -32.2122,-23.6531 -43.68375,-6.97958 -13.57826,19.7356 4.65561,44.80445 27.8879,38.34172 z m -46.38458,-53.86895 c 9.71216,-3.89238 15.75507,-16.19239 13.4541,-27.38505 -6.00776,-29.22391 -48.51458,-24.12665 -48.42555,5.807 0.052,17.4668 17.84152,28.4433 34.97145,21.57805 z m -71.18743,-20.20142 c 15.18859,-5.38561 19.86709,-27.45816 8.36809,-39.47953 -15.34464,-16.041673 -42.71541,-5.283847 -42.71541,16.7889 0,17.98693 16.62977,28.97293 34.34732,22.69063 z"
       id="path46" /></g></svg>
