<?xml version="1.0" encoding="UTF-8" standalone="no"?>
<!-- Created with Inkscape (http://www.inkscape.org/) -->

<svg
   width="512"
   height="512"
   viewBox="0 0 512 512"
   version="1.1"
   id="svg1"
   xml:space="preserve"
   sodipodi:docname="zsync.svg"
   inkscape:version="1.4.3 (0d15f75042, 2025-12-25)"
   xmlns:inkscape="http://www.inkscape.org/namespaces/inkscape"
   xmlns:sodipodi="http://sodipodi.sourceforge.net/DTD/sodipodi-0.dtd"
   xmlns="http://www.w3.org/2000/svg"
   xmlns:svg="http://www.w3.org/2000/svg"><sodipodi:namedview
     id="namedview1"
     pagecolor="#505050"
     bordercolor="#ffffff"
     borderopacity="1"
     inkscape:showpageshadow="0"
     inkscape:pageopacity="0"
     inkscape:pagecheckerboard="1"
     inkscape:deskcolor="#505050"
     inkscape:document-units="px"
     showguides="false"
     inkscape:zoom="1.3021442"
     inkscape:cx="306.80165"
     inkscape:cy="666.9768"
     inkscape:window-width="2534"
     inkscape:window-height="1390"
     inkscape:window-x="0"
     inkscape:window-y="0"
     inkscape:window-maximized="0"
     inkscape:current-layer="layer1" /><defs
     id="defs1" /><g
     inkscape:label="Layer 1"
     inkscape:groupmode="layer"
     id="layer1"><rect
       style="fill:#000000;fill-opacity:1;stroke:#ffffff;stroke-width:14;stroke-dasharray:none;stroke-opacity:1;paint-order:stroke fill markers"
       id="rect1"
       width="498"
       height="498"
       x="7"
       y="7"
       ry="243.84625" /><path
       style="fill:#ffffff;fill-opacity:1;stroke-width:3.99584"
       d="m 343.53082,162.24309 c 8.56442,14.88184 24.26137,42.04107 34.88207,60.35388 l 19.31034,33.29601 -21.61821,37.50782 c -20.08077,34.83691 -21.72284,37.37893 -23.08273,35.70011 -1.4216,-1.75509 -20.35492,-34.25456 -44.3468,-76.12218 l -11.76762,-20.53535 -6.84978,11.12893 c -5.83509,9.48013 -6.68775,11.49633 -5.75439,13.60983 0.99591,2.25536 7.92996,14.36187 44.0166,76.85107 l 11.81323,20.45625 -6.36982,11.7545 c -4.61484,8.51579 -6.94801,11.8529 -8.46898,12.11138 -1.15463,0.19624 -19.03503,0.34491 -39.73424,0.33035 -36.15979,-0.0254 -79.8922,-0.006 -92.30348,0.0407 -8.4339,0.0319 -7.52342,1.14197 -27.36281,-33.36355 -9.95903,-17.32125 -25.64711,-44.48362 -34.86239,-60.36088 l -16.75504,-28.86776 21.85848,-37.9494 c 12.02267,-20.87187 22.17022,-37.76941 22.5516,-37.54922 0.68099,0.39317 40.88312,69.52962 51.23854,88.11602 2.9055,5.21485 5.51416,9.61523 5.79705,9.77856 0.28307,0.16343 3.52258,-4.9133 7.19923,-11.28145 l 6.68479,-11.5784 -4.99203,-8.61556 c -22.05802,-38.06872 -36.46985,-63.08735 -43.14729,-74.90268 -4.32322,-7.64971 -8.35253,-14.19267 -8.954,-14.53993 -1.70727,-0.98569 11.29455,-22.80551 14.02519,-23.53712 4.48731,-1.20237 137.82291,-1.01214 139.87702,0.19956 0.85001,0.49999 8.55165,13.08704 17.11613,27.96886 z m -53.67093,-22.4442 c -65.94268,0.15465 -99.39192,-0.22564 -99.63498,-1.13277 -0.14813,-0.55292 -0.42599,-0.73406 -0.61734,-0.40262 -0.1914,0.33151 3.90172,7.91473 9.0959,16.85147 5.19419,8.93672 17.73212,30.66312 27.8621,48.28086 10.12997,17.61774 20.91817,36.33307 23.97378,41.58961 l 5.55568,9.55731 21.27319,-35.5676 21.27322,-35.56762 23.59886,40.96039 c 12.97937,22.52821 25.70732,44.5009 28.28433,48.82823 l 4.68548,7.86786 6.71886,-11.63742 6.71884,-11.63737 -9.41117,-16.30541 c -5.17613,-8.968 -17.95524,-31.13978 -28.39801,-49.27064 l -18.98692,-32.96518 5.68538,-9.84736 5.68538,-9.84737 -4.85341,0.095 c -2.66939,0.0523 -15.49847,0.11997 -28.50911,0.1505 z M 208.37854,318.0101 c -3.0537,-5.25986 -15.52733,-26.80994 -27.71919,-47.88907 C 168.46749,249.0419 158.24,231.36929 157.9316,230.84856 c -0.30834,-0.52084 -3.58185,4.28595 -7.2743,10.68146 l -6.71357,11.62825 6.05168,10.68748 c 3.32843,5.87807 16.10285,28.05799 28.38759,49.28871 l 22.33589,38.60122 -5.61079,9.71818 c -3.08593,5.34498 -5.18238,9.96553 -4.65884,10.26779 0.72451,0.4183 130.60064,0.93875 132.37136,0.53046 0.20659,-0.0477 -2.86171,-5.66592 -6.81824,-12.48515 -8.49759,-14.64573 -36.42535,-62.95558 -50.02623,-86.5361 l -9.5924,-16.63087 -21.22653,35.48676 -21.2265,35.48672 z"
       id="path46" /></g></svg>
